<?xml version="1.0" standalone="no"?>
<!DOCTYPE svg PUBLIC "-//W3C//DTD SVG 20010904//EN"
 "http://www.w3.org/TR/2001/REC-SVG-20010904/DTD/svg10.dtd">
<svg version="1.0" xmlns="http://www.w3.org/2000/svg"
 width="260.000000pt" height="260.000000pt" viewBox="0 0 260.000000 260.000000"
 preserveAspectRatio="xMidYMid meet">
<metadata>
Created by potrace 1.14, written by Peter Selinger 2001-2017
</metadata>
<g transform="translate(0.000000,260.000000) scale(0.100000,-0.100000)"
fill="#000000" stroke="none">
<path d="M924 2004 c-16 -8 -39 -29 -49 -47 -18 -30 -19 -59 -21 -502 -1 -415
-3 -475 -18 -510 -37 -89 -150 -119 -286 -75 -100 32 -126 31 -163 -6 -52 -52
-42 -137 21 -182 76 -55 251 -85 367 -63 101 19 200 80 252 156 29 42 61 139
69 211 4 32 7 258 7 501 0 489 3 472 -66 513 -38 24 -71 25 -113 4z"/>
<path d="M1435 1995 c-57 -39 -56 -24 -56 -658 0 -343 4 -593 9 -607 12 -31
39 -61 73 -84 23 -15 67 -17 396 -18 389 -1 396 0 436 45 41 47 35 128 -14
169 -17 14 -41 28 -52 30 -12 2 -151 3 -309 3 -159 0 -289 2 -289 5 -1 3 -2
241 -3 530 -1 508 -2 526 -21 552 -42 57 -113 71 -170 33z"/>
</g>
</svg>
